<svg xmlns:rdf="http://www.w3.org/1999/02/22-rdf-syntax-ns#" xmlns="http://www.w3.org/2000/svg" height="192" shape-rendering="geometricPrecision" width="262" version="1.1" xmlns:cc="http://creativecommons.org/ns#" xmlns:dc="http://purl.org/dc/elements/1.1/" preserveAspectRatio="xMidYMid">
<title>1-(10-(3-(dimethylamino)propyl)-10H-phenothiazin-2-yl)ethanone</title>
<metadata>
<rdf:RDF>
<cc:Work rdf:about="">
<dc:format>image/svg+xml</dc:format>
<dc:type rdf:resource="http://purl.org/dc/dcmitype/StillImage"/>
<dc:title>1-(10-(3-(dimethylamino)propyl)-10H-phenothiazin-2-yl)ethanone</dc:title>
<cc:license rdf:resource="http://creativecommons.org/licenses/publicdomain/"/>
</cc:Work>
<cc:License rdf:about="http://creativecommons.org/licenses/publicdomain/">
<cc:permits rdf:resource="http://creativecommons.org/ns#Reproduction"/>
<cc:permits rdf:resource="http://creativecommons.org/ns#Distribution"/>
<cc:permits rdf:resource="http://creativecommons.org/ns#DerivativeWorks"/>
</cc:License>
</rdf:RDF>
</metadata>
<path d="M55.96875,2.40625c-1.26303,0.00002-2.41732,0.26759-3.46875,0.84375-1.05143,0.57618-1.86784,1.42123-2.4375,2.53125-0.56966,1.11003-0.84375,2.41538-0.84375,3.90625,0,1.3672,0.24544,2.65235,0.75,3.84375,0.50455,1.19141,1.25195,2.09049,2.21875,2.71875,0.96679,0.62825,2.20703,0.9375,3.75,0.9375,1.49088,0,2.74934-0.40169,3.78125-1.21875,1.03189-0.81705,1.7591-2.00651,2.15625-3.5625l-1.90625-0.46875c-0.26043,1.20443-0.73309,2.10677-1.46875,2.71875-0.73569,0.61198-1.65756,0.93751-2.71875,0.9375-0.8724,0.00001-1.65755-0.23828-2.40625-0.6875s-1.30144-1.12304-1.65625-2.03125c-0.35482-0.90819-0.53125-1.97005-0.53125-3.1875,0-0.94401,0.13802-1.86132,0.4375-2.75,0.29948-0.88866,0.82356-1.59764,1.5625-2.125,0.73893-0.52733,1.64973-0.78123,2.75-0.78125,0.95702,0.00002,1.74348,0.21225,2.375,0.6875,0.6315,0.47527,1.13671,1.23959,1.46875,2.28125l1.84375-0.4375c-0.38413-1.3216-1.0547-2.33332-2.03125-3.0625-0.97657-0.72915-2.19272-1.09373-3.625-1.09375zm8.3125,0.21875v14.34375h1.90625v-6.75h7.4375v6.75h1.875v-14.34375h-1.875v5.90625h-7.4375v-5.90625h-1.90625zm16.84375,8.09375c-0.84961,0.00001-1.55372,0.23292-2.125,0.71875-0.57129,0.48585-0.93261,1.17872-1.09375,2.0625l1.3125,0.21875c0.09766-0.64453,0.31445-1.11522,0.65625-1.4375,0.3418-0.32226,0.76855-0.49999,1.28125-0.5,0.51758,0.00001,0.92285,0.15137,1.25,0.46875,0.32714,0.31739,0.5,0.73536,0.5,1.21875,0,0.61036-0.20704,1.05079-0.65625,1.34375-0.44923,0.29297-0.96973,0.43751-1.53125,0.4375-0.05371,0-0.13085,0.01-0.21875,0l-0.125,1.15625c0.37109-0.09768,0.65722-0.15625,0.90625-0.15625,0.61035,0,1.13574,0.20068,1.53125,0.59375,0.3955,0.39307,0.59375,0.89453,0.59375,1.5,0,0.63477-0.22901,1.16406-0.65625,1.59375-0.42725,0.42969-0.94239,0.65625-1.5625,0.65625-0.52247,0-0.97998-0.1704-1.34375-0.5-0.36377-0.32958-0.59864-0.87792-0.75-1.625l-1.34375,0.1875c0.08789,0.89355,0.43994,1.62598,1.0625,2.1875,0.62256,0.56153,1.43262,0.84375,2.375,0.84375,1.04492,0,1.91015-0.34814,2.59375-1,0.68358-0.65185,0.99999-1.4375,1-2.375-0.00001-0.69335-0.17969-1.25732-0.53125-1.71875-0.35156-0.46142-0.83399-0.79101-1.46875-0.9375,0.48828-0.22461,0.87597-0.52538,1.125-0.90625,0.24902-0.38085,0.34375-0.78613,0.34375-1.25,0-0.48828-0.11378-0.94042-0.375-1.375-0.26124-0.43456-0.63184-0.77978-1.125-1.03125-0.49317-0.25146-1.03906-0.37499-1.625-0.375zm-26.3125,9.71875v7.71875h1.1875v-7.71875h-1.1875zm-5.0625,10.875v14.3125h1.8125v-11.25l7.53125,11.25h1.9375v-14.3125h-1.8125v11.25l-7.53125-11.25h-1.9375zm-3,11.4375-7.65625,4.40625,0.59375,1.0625,7.6875-4.4375-0.625-1.03125zm17.34375,0.03125-0.59375,1.03125,16.25,9.375v28.8125l24.9375,14.40625v18.125h1.21875v-18.84375l-24.96875-14.375v-28.8125l-16.84375-9.71875zm-33.125,2.8125c-1.26303,0.00002-2.44857,0.29884-3.5,0.875-1.05144,0.57619-1.83659,1.42123-2.40625,2.53125-0.56966,1.11003-0.875,2.38413-0.875,3.875,0,1.3672,0.27669,2.65234,0.78125,3.84375,0.50456,1.1914,1.2207,2.12174,2.1875,2.75,0.9668,0.62825,2.23828,0.9375,3.78125,0.9375,1.49088,0,2.74934-0.40169,3.78125-1.21875,1.03189-0.81705,1.72785-2.0065,2.125-3.5625l-1.875-0.5c-0.26043,1.20443-0.76434,2.13802-1.5,2.75-0.73569,0.61198-1.62631,0.90625-2.6875,0.90625-0.8724,0-1.68881-0.23828-2.4375-0.6875-0.7487-0.44922-1.30144-1.12305-1.65625-2.03125-0.35482-0.9082-0.53125-1.97005-0.53125-3.1875,0-0.944,0.13802-1.86132,0.4375-2.75,0.29948-0.88867,0.82356-1.59764,1.5625-2.125,0.73892-0.52733,1.64973-0.78124,2.75-0.78125,0.95702,0.00001,1.77473,0.2435,2.40625,0.71875,0.6315,0.47527,1.10546,1.23959,1.4375,2.28125l1.875-0.46875c-0.38413-1.3216-1.08595-2.33332-2.0625-3.0625-0.97657-0.72915-2.16147-1.09373-3.59375-1.09375zm-28.96875,0.25v14.3125h1.90625v-6.75h7.4375v6.75h1.875v-14.3125h-1.875v5.875h-7.4375v-5.875h-1.90625zm16.84375,8.0625c-0.84961,0.00001-1.55372,0.23292-2.125,0.71875-0.57129,0.48585-0.93262,1.17872-1.09375,2.0625l1.3125,0.25c0.09766-0.64452,0.31445-1.14647,0.65625-1.46875,0.3418-0.32225,0.76855-0.46874,1.28125-0.46875,0.51757,0.00001,0.92285,0.15138,1.25,0.46875,0.32714,0.31739,0.5,0.70411,0.5,1.1875,0,0.61036-0.20703,1.08204-0.65625,1.375-0.44922,0.29298-0.96973,0.43751-1.53125,0.4375-0.05371,0.0001-0.13085-0.02125-0.21875-0.03125l-0.125,1.15625c0.37109-0.09768,0.65722-0.125,0.90625-0.125,0.61035,0,1.13574,0.16944,1.53125,0.5625,0.3955,0.39307,0.59374,0.89454,0.59375,1.5-0.00001,0.63477-0.22901,1.16406-0.65625,1.59375-0.42725,0.42969-0.94239,0.65625-1.5625,0.65625-0.52247,0-0.97998-0.17041-1.34375-0.5s-0.59864-0.84668-0.75-1.59375l-1.34375,0.15625c0.08789,0.89355,0.47119,1.62598,1.09375,2.1875,0.62256,0.56153,1.40137,0.84375,2.34375,0.84375,1.04492,0,1.91015-0.3169,2.59375-0.96875,0.68358-0.65186,0.99999-1.46874,1-2.40625-0.00001-0.69335-0.14844-1.25732-0.5-1.71875-0.35157-0.46142-0.86524-0.75976-1.5-0.90625,0.48828-0.2246,0.87597-0.52539,1.125-0.90625,0.24901-0.38086,0.375-0.81738,0.375-1.28125,0-0.48828-0.14503-0.94042-0.40625-1.375-0.26124-0.43456-0.63185-0.77978-1.125-1.03125-0.49317-0.25146-1.03906-0.37499-1.625-0.375zm186.21875,34.875c-2.01824,0.00001-3.66146,0.68686-4.9375,2.03125-1.27604,1.34441-1.90625,3.1862-1.90625,5.5625,0,1.25651,0.26562,2.46746,0.8125,3.59375,0.54687,1.12631,1.34505,2.00521,2.40625,2.65625,1.06119,0.65104,2.27734,0.96875,3.625,0.96875,1.24348,0,2.39452-0.2858,3.46875-0.875,1.07421-0.58919,1.91405-1.44791,2.5-2.59375,0.58592-1.145815,0.87499-2.45442,0.875-3.90625-0.00001-1.43228-0.28712-2.71419-0.84375-3.84375-0.55665-1.12955-1.34506-2.02472-2.40625-2.65625-1.0612-0.63149-2.27215-0.93749-3.59375-0.9375zm0,1.625c0.944,0.00001,1.80403,0.24025,2.5625,0.71875,0.75845,0.47853,1.32486,1.16212,1.71875,2.03125,0.39387,0.86915,0.59374,1.89715,0.59375,3.0625-0.00001,1.84246-0.45379,3.247405-1.375,4.25-0.92123,1.00261-2.07422,1.5-3.5,1.5-1.39974,0-2.57227-0.47591-3.5-1.46875-0.92773-0.992825-1.40625-2.36848-1.40625-4.09375,0-2.15494,0.50195-3.67251,1.46875-4.59375,0.96679-0.92121,2.09635-1.40624,3.4375-1.40625zm-3.1875,16.4375v19.15625l-21.75,12.5625-24.96875-14.40625-24.9375,14.40625-16.21875-9.375-0.59375,1.03125,16.21875,9.375v28.09375l-16.625,9.625,0.59375,1.03125,16.625-9.59375,24.9375,14.40625,25.5625-14.75v-28.8125l24.34375-14.0625,16.09375,9.3125,0.59375-1.03125-13.5-7.8125v-19.15625h-1.21875v18.4375l-1.96875-1.125-2,1.15625v-18.46875h-1.1875zm-102.25,10.875v14.3125h1.8125v-11.25l7.53125,11.25h1.9375v-14.3125h-1.8125v11.21875l-7.53125-11.21875h-1.9375zm-44.21875,6.4375-25.53125,14.75v29.5l25.53125,14.75,24.9375-14.40625,16.625,9.59375,0.59375-1.0625-16.625-9.59375v-28.09375l16.21875-9.34375-0.59375-1.0625-16.21875,9.375-24.9375-14.40625zm0,1.375,24.34375,14.0625v28.09375l-24.34375,14.0625-24.34375-14.0625v-28.09375l24.34375-14.0625zm99.75,0,24.34375,14.0625v28.09375l-24.34375,14.0625-24.3125-14.0625v-28.09375l24.3125-14.0625zm-100.03125,4.78125-19.78125,11.40625,0.625,1.03125,19.75-11.375-0.59375-1.0625zm99.75,0-19.75,11.40625,0.59375,1.03125,19.75-11.375-0.59375-1.0625zm75.6875,1.6875c-1.26302,0.00001-2.41732,0.29885-3.46875,0.875-1.05143,0.57619-1.86784,1.38999-2.4375,2.5-0.56966,1.11004-0.84375,2.41537-0.84375,3.90625,0,1.36719,0.24544,2.65235,0.75,3.84375,0.50455,1.19141,1.25195,2.0905,2.21875,2.71875,0.96679,0.62826,2.20702,0.96875,3.75,0.96875,1.49087,0,2.74933-0.43294,3.78125-1.25,1.03188-0.81706,1.7591-2.00651,2.15625-3.5625l-1.90625-0.46875c-0.26043,1.20443-0.76434,2.10678-1.5,2.71875-0.73569,0.61198-1.62631,0.9375-2.6875,0.9375-0.87241,0-1.68881-0.23828-2.4375-0.6875-0.74871-0.44921-1.30143-1.12304-1.65625-2.03125-0.35482-0.9082-0.53126-1.97004-0.53125-3.1875-0.00001-0.944,0.16927-1.86132,0.46875-2.75,0.29948-0.88866,0.82356-1.59765,1.5625-2.125,0.73893-0.52733,1.64973-0.78124,2.75-0.78125,0.95702,0.00001,1.74348,0.2435,2.375,0.71875,0.6315,0.47527,1.10545,1.20835,1.4375,2.25l1.875-0.4375c-0.38413-1.3216-1.0547-2.33332-2.03125-3.0625-0.97657-0.72916-2.19271-1.09374-3.625-1.09375zm8.3125,0.25v14.3125h1.875v-6.75h7.46875v6.75h1.875v-14.3125h-1.875v5.875h-7.46875v-5.875h-1.875zm16.84375,8.0625c-0.84962,0.00001-1.55372,0.23292-2.125,0.71875-0.57129,0.48585-0.96387,1.17872-1.125,2.0625l1.34375,0.21875c0.09766-0.64452,0.31446-1.11523,0.65625-1.4375,0.3418-0.32226,0.76855-0.49999,1.28125-0.5,0.51758,0.00001,0.92285,0.18263,1.25,0.5,0.32715,0.31739,0.49999,0.70411,0.5,1.1875-0.00001,0.61036-0.23829,1.05079-0.6875,1.34375-0.44923,0.29298-0.93848,0.46875-1.5,0.46875-0.05371,0-0.13085-0.02125-0.21875-0.03125l-0.15625,1.15625c0.37109-0.09769,0.68848-0.15624,0.9375-0.15625,0.61035,0.00001,1.10449,0.20069,1.5,0.59375,0.3955,0.39307,0.59375,0.89454,0.59375,1.5,0,0.63477-0.19776,1.16407-0.625,1.59375-0.42725,0.42969-0.94239,0.65626-1.5625,0.65625-0.52246,0.00001-0.97998-0.17041-1.34375-0.5s-0.62989-0.87793-0.78125-1.625l-1.3125,0.1875c0.08789,0.89356,0.43994,1.62598,1.0625,2.1875s1.40136,0.84375,2.34375,0.84375c1.04491,0,1.91015-0.31689,2.59375-0.96875,0.68359-0.65185,1.03124-1.46875,1.03125-2.40625-0.00001-0.69336-0.1797-1.25732-0.53125-1.71875-0.35157-0.46142-0.83399-0.75976-1.46875-0.90625,0.48828-0.2246,0.84472-0.52538,1.09375-0.90625,0.24902-0.38085,0.37499-0.81737,0.375-1.28125-0.00001-0.48827-0.11378-0.94042-0.375-1.375-0.26124-0.43456-0.63184-0.77977-1.125-1.03125-0.49317-0.25145-1.03907-0.37499-1.625-0.375zm-181.15625,1.9375v22.8125h1.21875v-22.8125h-1.21875zm99.78125,0v22.8125h1.1875v-22.8125h-1.1875zm-138.375,22.28125-0.625,1.0625,19.78125,11.40625,0.59375-1.0625-19.75-11.40625zm99.75,0-0.59375,1.0625,19.75,11.40625,0.59375-1.0625-19.75-11.40625zm-30.65625,10.65625c-0.96355,0.00001-1.83725,0.17449-2.625,0.5-0.78777,0.32553-1.40234,0.80926-1.8125,1.4375-0.41015,0.62827-0.59375,1.27736-0.59375,2,0,0.65756,0.16471,1.28191,0.5,1.8125,0.33528,0.5306,0.84765,0.95443,1.53125,1.3125,0.52734,0.27995,1.43489,0.5905,2.75,0.90625,1.3151,0.31576,2.17838,0.53777,2.5625,0.6875,0.59895,0.22787,1.02082,0.50847,1.28125,0.84375,0.26041,0.33529,0.37499,0.73828,0.375,1.1875-0.00001,0.44271-0.13608,0.84441-0.40625,1.21875-0.27019,0.37435-0.66537,0.66016-1.21875,0.875-0.55339,0.21485-1.1836,0.34375-1.90625,0.34375-0.81381,0-1.56771-0.15429-2.21875-0.4375-0.65104-0.2832-1.12826-0.66601-1.4375-1.125-0.30924-0.45898-0.50915-1.03385-0.59375-1.75l-1.78125,0.15625c0.02604,0.95703,0.2832,1.80404,0.78125,2.5625,0.49804,0.75846,1.18685,1.34115,2.0625,1.71875s1.95442,0.5625,3.25,0.5625c1.02213,0,1.96418-0.18815,2.78125-0.5625,0.81705-0.37435,1.43879-0.88867,1.875-1.5625,0.43619-0.67383,0.65624-1.39453,0.65625-2.15625-0.00001-0.76823-0.19663-1.44205-0.59375-2.03125-0.39715-0.58918-1.01043-1.08463-1.84375-1.46875-0.57292-0.26041-1.6478-0.55794-3.1875-0.90625-1.53972-0.3483-2.47917-0.69921-2.84375-1.03125-0.3711-0.33202-0.5625-0.76692-0.5625-1.28125,0-0.59244,0.25716-1.08006,0.78125-1.5,0.52409-0.41991,1.35416-0.62499,2.5-0.625,1.10025,0.00001,1.93684,0.22527,2.5,0.6875,0.56314,0.46225,0.9023,1.12631,1,2.03125l1.8125-0.125c-0.03256-0.83983-0.25132-1.58592-0.6875-2.25-0.43621-0.66405-1.06446-1.15819-1.875-1.5-0.81056-0.34178-1.75131-0.53124-2.8125-0.53125z" fill="#000"/>
</svg>
