<?xml version="1.0" encoding="UTF-8" standalone="no"?>
<!-- Generator: Adobe Illustrator 16.0.0, SVG Export Plug-In . SVG Version: 6.00 Build 0)  -->

<svg
   xmlns:dc="http://purl.org/dc/elements/1.1/"
   xmlns:cc="http://creativecommons.org/ns#"
   xmlns:rdf="http://www.w3.org/1999/02/22-rdf-syntax-ns#"
   xmlns:svg="http://www.w3.org/2000/svg"
   xmlns="http://www.w3.org/2000/svg"
   xmlns:sodipodi="http://sodipodi.sourceforge.net/DTD/sodipodi-0.dtd"
   xmlns:inkscape="http://www.inkscape.org/namespaces/inkscape"
   version="1.1"
   id="Capa_1"
   x="0px"
   y="0px"
   width="126.14946"
   height="99.114738"
   viewBox="0 0 126.14946 99.114738"
   xml:space="preserve"
   inkscape:version="0.91 r13725"
   sodipodi:docname="cat.svg"><metadata
     id="metadata4270"><rdf:RDF><cc:Work
         rdf:about=""><dc:format>image/svg+xml</dc:format><dc:type
           rdf:resource="http://purl.org/dc/dcmitype/StillImage" /><dc:title></dc:title></cc:Work></rdf:RDF></metadata><defs
     id="defs4268" /><sodipodi:namedview
     pagecolor="#ffffff"
     bordercolor="#666666"
     borderopacity="1"
     objecttolerance="10"
     gridtolerance="10"
     guidetolerance="10"
     inkscape:pageopacity="0"
     inkscape:pageshadow="2"
     inkscape:window-width="1301"
     inkscape:window-height="903"
     id="namedview4266"
     showgrid="false"
     fit-margin-top="0"
     fit-margin-left="0"
     fit-margin-right="0"
     fit-margin-bottom="0"
     inkscape:zoom="3.361129"
     inkscape:cx="114.77443"
     inkscape:cy="89.336993"
     inkscape:window-x="20"
     inkscape:window-y="66"
     inkscape:window-maximized="0"
     inkscape:current-layer="Capa_1" /><g
     id="g4232"
     transform="matrix(-0.2258529,0,0,0.20485685,128.05841,-8.8410046)"
     style="fill:none;fill-opacity:1;stroke:#000000;stroke-width:9.37971115;stroke-linecap:round;stroke-linejoin:round;stroke-miterlimit:4;stroke-dasharray:none;stroke-opacity:1"><path
       d="m 27.044578,91.889135 c 0,0 -4.661441,-41.684799 8.745688,-43.442043 13.397374,-1.766089 16.893699,23.481709 19.224911,26.412749 2.331209,2.931035 25.639384,19.959354 49.535463,0.582471 23.88639,-19.368032 28.54782,-13.506943 29.7139,-9.975746 1.16513,3.532173 2.33122,22.899236 -9.90105,39.337204 0,0 -0.28858,7.92775 1.74329,16.72876 2.04164,8.8108 -7.57083,21.42486 -5.82752,32.29248 1.75303,10.85783 17.48162,47.84652 58.27137,64.28442 40.78983,16.43795 101.58741,15.65718 120.23405,135.41519 0,0 0,48.53307 -8.55049,75.92219 -8.54879,27.39893 15.64463,23.11528 20.97784,24.26161 5.48247,1.18359 63.70702,14.86833 163.15931,25.05035 99.45414,10.18202 87.80007,25.83029 86.24199,35.22259 -1.55803,9.39226 -16.31554,14.86928 -145.28658,-7.82461 -132.08418,-17.21596 -160.82803,-35.2226 -161.60211,-19.56452 -0.77427,15.65709 -26.80455,8.02106 -32.63208,7.72935 -5.82753,-0.29074 -105.47572,4.11367 -104.59922,-28.76033 0,-17.32006 46.90591,-9.10155 46.90591,-9.10155 0,0 -53.32038,-18.49484 -25.63935,-31.70023 -3.20776,-16.14623 -11.06716,-26.41278 -4.95102,-42.55893 6.11614,-16.14625 -6.70306,-26.12108 -14.8618,-10.85781 -8.15874,15.26314 -2.61983,59.87898 -33.797167,63.69209 C 69.876017,474.66378 66.668291,492.27454 36.367464,489.33467 6.0666311,486.3948 18.885839,468.78304 25.001969,465.2705 c 6.116136,-3.52234 22.431659,-3.52234 23.019579,-26.41274 0.587924,-22.8992 11.654097,-80.72245 14.572253,-88.05687 C 37.728549,262.7243 36.954407,203.23909 25.300314,160.9719 10.150876,115.96218 10.150876,115.96218 27.044578,91.889135 Z"
       id="path4234"
       inkscape:connector-curvature="0"
       style="fill:none;fill-opacity:1;stroke:#000000;stroke-width:9.17913246;stroke-linecap:round;stroke-linejoin:round;stroke-miterlimit:4;stroke-dasharray:none;stroke-opacity:1" /></g><g
     id="g4236"
     transform="translate(-7.1404484,-6.3758658)" /><g
     id="g4238"
     transform="translate(-7.1404484,-6.3758658)" /><g
     id="g4240"
     transform="translate(-7.1404484,-6.3758658)" /><g
     id="g4242"
     transform="translate(-7.1404484,-6.3758658)" /><g
     id="g4244"
     transform="translate(-7.1404484,-6.3758658)" /><g
     id="g4246"
     transform="translate(-7.1404484,-6.3758658)" /><g
     id="g4248"
     transform="translate(-7.1404484,-6.3758658)" /><g
     id="g4250"
     transform="translate(-7.1404484,-6.3758658)" /><g
     id="g4252"
     transform="translate(-7.1404484,-6.3758658)" /><g
     id="g4254"
     transform="translate(-7.1404484,-6.3758658)" /><g
     id="g4256"
     transform="translate(-7.1404484,-6.3758658)" /><g
     id="g4258"
     transform="translate(-7.1404484,-6.3758658)" /><g
     id="g4260"
     transform="translate(-7.1404484,-6.3758658)" /><g
     id="g4262"
     transform="translate(-7.1404484,-6.3758658)" /><g
     id="g4264"
     transform="translate(-7.1404484,-6.3758658)" /></svg>