<?xml version="1.0" encoding="UTF-8" standalone="no"?>
<!-- Generator: Adobe Illustrator 16.0.0, SVG Export Plug-In . SVG Version: 6.00 Build 0)  -->

<svg
   xmlns:dc="http://purl.org/dc/elements/1.1/"
   xmlns:cc="http://creativecommons.org/ns#"
   xmlns:rdf="http://www.w3.org/1999/02/22-rdf-syntax-ns#"
   xmlns:svg="http://www.w3.org/2000/svg"
   xmlns="http://www.w3.org/2000/svg"
   xmlns:sodipodi="http://sodipodi.sourceforge.net/DTD/sodipodi-0.dtd"
   xmlns:inkscape="http://www.inkscape.org/namespaces/inkscape"
   version="1.1"
   id="Capa_1"
   x="0px"
   y="0px"
   width="60.48547"
   height="52.068691"
   viewBox="0 0 60.485469 52.068691"
   xml:space="preserve"
   inkscape:version="0.91 r13725"
   sodipodi:docname="logo.svg"><metadata
     id="metadata5157"><rdf:RDF><cc:Work
         rdf:about=""><dc:format>image/svg+xml</dc:format><dc:type
           rdf:resource="http://purl.org/dc/dcmitype/StillImage" /><dc:title></dc:title></cc:Work></rdf:RDF></metadata><defs
     id="defs5155" /><sodipodi:namedview
     pagecolor="#ffffff"
     bordercolor="#666666"
     borderopacity="1"
     objecttolerance="10"
     gridtolerance="10"
     guidetolerance="10"
     inkscape:pageopacity="0"
     inkscape:pageshadow="2"
     inkscape:window-width="971"
     inkscape:window-height="672"
     id="namedview5153"
     showgrid="false"
     fit-margin-top="0"
     fit-margin-left="0"
     fit-margin-right="0"
     fit-margin-bottom="0"
     inkscape:zoom="7.5202937"
     inkscape:cx="25.011044"
     inkscape:cy="28.889692"
     inkscape:window-x="103"
     inkscape:window-y="47"
     inkscape:window-maximized="0"
     inkscape:current-layer="Capa_1" /><g
     id="g5119"
     transform="matrix(0.66189833,0,0,0.64428121,0.79784114,-2.6231401)"><path
       d="M 88.748,28.822 C 87.433,14.123 76.639,6.532 67.17,5.703 55.521,4.682 49.389,8.26 44.38,13.056 39.372,8.257 33.218,4.677 21.59,5.7 12.116,6.53 1.324,14.121 0.014,28.822 L 0,33.34 0.011,33.643 C 1.346,49.021 15.246,64.855 42.51,82.055 l 1.868,1.182 1.869,-1.182 C 73.51,64.856 87.413,49.018 88.745,33.644 l 0.017,-4.511 -0.014,-0.311 z M 47.289,30.75 c 0.992,-3.708 3.967,-6.131 6.647,-5.415 2.68,0.719 4.044,4.31 3.054,8.014 -0.994,3.705 -3.969,6.132 -6.649,5.412 -2.68,-0.717 -4.046,-4.304 -3.052,-8.011 z M 35.995,25.333 c 2.677,-0.717 5.652,1.708 6.647,5.414 0.994,3.708 -0.371,7.295 -3.05,8.012 -2.679,0.72 -5.653,-1.708 -6.648,-5.412 -0.994,-3.704 0.372,-7.295 3.051,-8.014 z M 24.292,44.444 c -1.698,-2.942 -1.357,-6.323 0.773,-7.549 2.128,-1.228 5.228,0.161 6.925,3.107 1.703,2.945 1.357,6.326 -0.77,7.552 -2.127,1.224 -5.23,-0.162 -6.928,-3.11 z m 20.672,16.324 c -7.923,0 -14.347,6.848 -14.347,-2.404 0,-9.254 9.201,-16.752 14.347,-16.75 5.146,0.002 14.348,7.496 14.348,16.75 0,9.251 -6.423,2.404 -14.348,2.404 z M 65.635,44.444 c -1.697,2.947 -4.797,4.334 -6.928,3.109 -2.128,-1.226 -2.473,-4.609 -0.769,-7.552 1.697,-2.946 4.795,-4.335 6.926,-3.107 2.131,1.227 2.47,4.608 0.771,7.55 z"
       id="path5121"
       inkscape:connector-curvature="0" /></g><g
     id="g5123"
     transform="translate(-0.56415935,1.3648469)" /><g
     id="g5125"
     transform="translate(-0.56415935,1.3648469)" /><g
     id="g5127"
     transform="translate(-0.56415935,1.3648469)" /><g
     id="g5129"
     transform="translate(-0.56415935,1.3648469)" /><g
     id="g5131"
     transform="translate(-0.56415935,1.3648469)" /><g
     id="g5133"
     transform="translate(-0.56415935,1.3648469)" /><g
     id="g5135"
     transform="translate(-0.56415935,1.3648469)" /><g
     id="g5137"
     transform="translate(-0.56415935,1.3648469)" /><g
     id="g5139"
     transform="translate(-0.56415935,1.3648469)" /><g
     id="g5141"
     transform="translate(-0.56415935,1.3648469)" /><g
     id="g5143"
     transform="translate(-0.56415935,1.3648469)" /><g
     id="g5145"
     transform="translate(-0.56415935,1.3648469)" /><g
     id="g5147"
     transform="translate(-0.56415935,1.3648469)" /><g
     id="g5149"
     transform="translate(-0.56415935,1.3648469)" /><g
     id="g5151"
     transform="translate(-0.56415935,1.3648469)" /></svg>