<svg xmlns:rdf="http://www.w3.org/1999/02/22-rdf-syntax-ns#" xmlns="http://www.w3.org/2000/svg" height="204" shape-rendering="geometricPrecision" width="164" version="1.1" xmlns:cc="http://creativecommons.org/ns#" xmlns:dc="http://purl.org/dc/elements/1.1/" preserveAspectRatio="xMidYMid">
<title>8-chloro-6-(2-fluorophenyl)-1-methyl-4H-benzo[f]imidazo[1,5-a][1,4]diazepine</title>
<metadata>
<rdf:RDF>
<cc:Work rdf:about="">
<dc:format>image/svg+xml</dc:format>
<dc:type rdf:resource="http://purl.org/dc/dcmitype/StillImage"/>
<dc:title>8-chloro-6-(2-fluorophenyl)-1-methyl-4H-benzo[f]imidazo[1,5-a][1,4]diazepine</dc:title>
<cc:license rdf:resource="http://creativecommons.org/licenses/publicdomain/"/>
</cc:Work>
<cc:License rdf:about="http://creativecommons.org/licenses/publicdomain/">
<cc:permits rdf:resource="http://creativecommons.org/ns#Reproduction"/>
<cc:permits rdf:resource="http://creativecommons.org/ns#Distribution"/>
<cc:permits rdf:resource="http://creativecommons.org/ns#DerivativeWorks"/>
</cc:License>
</rdf:RDF>
</metadata>
<path d="M87.90625,2.375c-1.26303,0.00002-2.41733,0.26759-3.46875,0.84375-1.05144,0.57618-1.86784,1.42123-2.4375,2.53125-0.56966,1.11003-0.84375,2.41538-0.84375,3.90625,0,1.3672,0.24544,2.65235,0.75,3.84375,0.50455,1.19141,1.2207,2.09049,2.1875,2.71875,0.96679,0.62825,2.23827,0.9375,3.78125,0.9375,1.49087,0,2.74934-0.40169,3.78125-1.21875,1.03189-0.81705,1.7591-2.00651,2.15625-3.5625l-1.90625-0.46875c-0.26043,1.20443-0.76433,2.10677-1.5,2.71875-0.73569,0.61198-1.62631,0.90626-2.6875,0.90625-0.8724,0.00001-1.68881-0.20703-2.4375-0.65625-0.7487-0.44922-1.30143-1.12304-1.65625-2.03125-0.35482-0.90819-0.53126-1.97005-0.53125-3.1875-0.00001-0.94401,0.13801-1.86132,0.4375-2.75,0.29947-0.88866,0.82357-1.59764,1.5625-2.125,0.73893-0.52733,1.68099-0.81248,2.78125-0.8125,0.95703,0.00002,1.74348,0.2435,2.375,0.71875,0.63149,0.47527,1.10546,1.23959,1.4375,2.28125l1.875-0.4375c-0.38413-1.3216-1.08595-2.33332-2.0625-3.0625-0.97658-0.72915-2.16147-1.09373-3.59375-1.09375zm-28.96875,0.21875,0,14.3125,1.90625,0,0-6.71875,7.4375,0,0,6.71875,1.90625,0,0-14.3125-1.90625,0,0,5.875-7.4375,0,0-5.875-1.90625,0zm74.15625,2.96875,0,14.3125,1.8125,0,0-11.25,7.5,11.25,1.96875,0,0-14.3125-1.84375,0,0,11.21875-7.5-11.21875-1.9375,0zm-57.3125,5.09375c-0.84961,0.00001-1.55371,0.26417-2.125,0.75-0.57129,0.48585-0.93262,1.14747-1.09375,2.03125l1.3125,0.25c0.09765-0.64453,0.31445-1.11522,0.65625-1.4375,0.34179-0.32226,0.76855-0.49999,1.28125-0.5,0.51757,0.00001,0.95409,0.15137,1.28125,0.46875,0.32714,0.31739,0.46874,0.73536,0.46875,1.21875-0.00001,0.61036-0.20704,1.05079-0.65625,1.34375-0.44922,0.29297-0.96973,0.43751-1.53125,0.4375-0.05372,0-0.0996,0.01-0.1875,0l-0.15625,1.15625c0.37109-0.09768,0.68847-0.15625,0.9375-0.15625,0.61034,0,1.10449,0.20068,1.5,0.59375s0.59374,0.89453,0.59375,1.5c-0.00001,0.63477-0.22901,1.16406-0.65625,1.59375-0.42725,0.42969-0.94238,0.65625-1.5625,0.65625-0.52246,0-0.94874-0.1704-1.3125-0.5-0.36378-0.32958-0.62988-0.87792-0.78125-1.625l-1.3125,0.1875c0.08789,0.89355,0.43994,1.62598,1.0625,2.1875,0.62255,0.56153,1.40136,0.8125,2.34375,0.8125,1.04492,0,1.91015-0.31689,2.59375-0.96875,0.68359-0.65185,1.03124-1.4375,1.03125-2.375-0.00001-0.69335-0.1797-1.28857-0.53125-1.75-0.35157-0.46142-0.86524-0.75976-1.5-0.90625,0.48827-0.22461,0.87597-0.52539,1.125-0.90625,0.24902-0.38086,0.37499-0.78613,0.375-1.25-0.00001-0.48828-0.14502-0.97167-0.40625-1.40625-0.26123-0.43456-0.63184-0.77978-1.125-1.03125-0.49317-0.25146-1.03907-0.37499-1.625-0.375zm21.0625,3.6875-0.59375,1.03125,15.5,8.96875,1.625,18.03125,1.1875-0.09375-1.59375-17.90625,17.5-7.46875-0.46875-1.09375-17.625,7.5-15.53125-8.96875zm35.15625,6.21875-14.4375,6.15625,0.46875,1.09375,14.4375-6.15625-0.46875-1.09375zm15.03125,0.6875-0.90625,0.78125,10.8125,12.375-14.28125,23.9375-18.84375-4.28125-0.25,1.15625,18.9375,4.34375,12.25,25.375-7.53125,15.65625,1.0625,0.5,7.8125-16.15625-12.46875-25.875,14.8125-24.78125-11.40625-13.03125zm3.75,13.375-10.875,18.21875,1.03125,0.625,10.875-18.25-1.03125-0.59375zm-41.5625,10.84375,0,14.34375,1.84375,0,0-11.25,7.5,11.25,1.9375,0,0-14.34375-1.8125,0,0,11.25-7.5-11.25-1.96875,0zm-41.6875,10.03125-25.5,14.6875,0,28.75-21,12.15625,0.59375,1.03125,21-12.125,24.90625,14.375,24.84375-14.34375,21.875,17.4375-6.25,27.3125-27.46875,8.46875-6.5625,28.71875,21.59375,20.03125,28.125-8.6875,6.40625-28.03125,19.40625-5.96875-0.375-1.15625-19.375,5.96875-20.5625-19.0625,6.21875-27.34375,18.96875-4.3125-0.25-1.1875-19.0625,4.375-22.03125-17.59375,0-28.15625,14.09375-11.25-0.75-0.9375-14,11.1875-24.84375-14.34375zm0,1.375,24.28125,14.03125,0,28.03125-24.28125,14.0625-24.28125-14.0625,0-28.03125,24.28125-14.03125zm0.28125,4.75-0.59375,1.03125,19.71875,11.40625,0.59375-1.03125-19.71875-11.40625zm-20.625,11.90625,0,22.78125,1.21875,0,0-22.78125-1.21875,0zm39.75,22.25-19.71875,11.40625,0.59375,1.03125,19.71875-11.375-0.59375-1.0625zm50.3125,7.90625,0,14.3125,1.8125,0,0-11.25,7.53125,11.25,1.9375,0,0-14.3125-1.8125,0,0,11.25-7.53125-11.25-1.9375,0zm-128.5,2.71875c-1.26302,0.00001-2.41732,0.29884-3.46875,0.875-1.05143,0.57618-1.86784,1.42124-2.4375,2.53125-0.56966,1.11004-0.84375,2.41537-0.84375,3.90625,0,1.36719,0.24544,2.65235,0.75,3.84375,0.50455,1.19141,1.25195,2.0905,2.21875,2.71875,0.96679,0.62826,2.20702,0.9375,3.75,0.9375,1.49087,0,2.74933-0.40169,3.78125-1.21875,1.03188-0.81706,1.7591-2.00651,2.15625-3.5625l-1.90625-0.46875c-0.26043,1.20444-0.73309,2.10678-1.46875,2.71875-0.73569,0.61198-1.65756,0.90625-2.71875,0.90625-0.87241,0-1.65756-0.20703-2.40625-0.65625-0.74871-0.44921-1.30143-1.12304-1.65625-2.03125-0.35482-0.9082-0.53126-1.97004-0.53125-3.1875-0.00001-0.944,0.13802-1.86132,0.4375-2.75,0.29948-0.88866,0.82356-1.59765,1.5625-2.125,0.73893-0.52733,1.64973-0.81248,2.75-0.8125,0.95702,0.00002,1.74348,0.24351,2.375,0.71875,0.6315,0.47528,1.1367,1.2396,1.46875,2.28125l1.84375-0.4375c-0.38413-1.3216-1.0547-2.36457-2.03125-3.09375-0.97657-0.72915-2.19271-1.09374-3.625-1.09375zm8,0.25,0,14.3125,1.75,0,0-14.3125-1.75,0zm116.1875,0.53125-16.90625,3.84375,0.28125,1.1875,16.90625-3.875-0.28125-1.15625zm-24.5625,38.75,20.5625,19.0625-6.25,27.375-26.8125,8.25-20.59375-19.0625,6.25-27.375,26.84375-8.25zm43.90625,3.25,0,14.3125,1.90625,0,0-6.5,6.71875,0,0-1.6875-6.71875,0,0-4.4375,7.75,0,0-1.6875-9.65625,0zm-45.28125,1.34375-21.78125,6.6875,0.34375,1.15625,21.78125-6.71875-0.34375-1.125zm16.28125,15.90625-5.0625,22.21875,1.15625,0.25,5.0625-22.1875-1.15625-0.28125zm-42.53125,13.125-0.8125,0.875,16.6875,15.5,0.8125-0.875-16.6875-15.5z" fill="#000"/>
</svg>
