<?xml version="1.0" encoding="UTF-8" standalone="no"?>
<!-- Generator: Adobe Illustrator 16.0.0, SVG Export Plug-In . SVG Version: 6.00 Build 0)  -->

<svg
   xmlns:dc="http://purl.org/dc/elements/1.1/"
   xmlns:cc="http://creativecommons.org/ns#"
   xmlns:rdf="http://www.w3.org/1999/02/22-rdf-syntax-ns#"
   xmlns:svg="http://www.w3.org/2000/svg"
   xmlns="http://www.w3.org/2000/svg"
   xmlns:sodipodi="http://sodipodi.sourceforge.net/DTD/sodipodi-0.dtd"
   xmlns:inkscape="http://www.inkscape.org/namespaces/inkscape"
   version="1.1"
   id="Capa_1"
   x="0px"
   y="0px"
   width="499.68744"
   height="435.59183"
   viewBox="0 0 499.68743 435.59182"
   xml:space="preserve"
   inkscape:version="0.91 r13725"
   sodipodi:docname="print.svg"><metadata
     id="metadata41"><rdf:RDF><cc:Work
         rdf:about=""><dc:format>image/svg+xml</dc:format><dc:type
           rdf:resource="http://purl.org/dc/dcmitype/StillImage" /><dc:title></dc:title></cc:Work></rdf:RDF></metadata><defs
     id="defs39" /><sodipodi:namedview
     pagecolor="#ffffff"
     bordercolor="#666666"
     borderopacity="1"
     objecttolerance="10"
     gridtolerance="10"
     guidetolerance="10"
     inkscape:pageopacity="0"
     inkscape:pageshadow="2"
     inkscape:window-width="1242"
     inkscape:window-height="954"
     id="namedview37"
     showgrid="false"
     fit-margin-top="0"
     fit-margin-left="0"
     fit-margin-right="0"
     fit-margin-bottom="0"
     inkscape:zoom="0.85652792"
     inkscape:cx="259.18579"
     inkscape:cy="167.42828"
     inkscape:window-x="83"
     inkscape:window-y="5"
     inkscape:window-maximized="0"
     inkscape:current-layer="Capa_1" /><g
     id="g3"
     transform="matrix(0.89406792,0,0,0.84978716,3.5023758,-16.581882)"
     style="fill:none;fill-opacity:1;stroke:#000000;stroke-opacity:1;stroke-width:1.80348362;stroke-miterlimit:4;stroke-dasharray:none;stroke-linejoin:round;stroke-linecap:round"><path
       d="m 465.19,453.459 c 14.749,67.688 -58.752,82.375 -91.127,73.562 -32.375,-8.813 -98.41,-10.281 -98.41,-10.281 0,0 -66.218,1.469 -98.593,10.281 -32.375,8.874 -105.937,-5.875 -91.249,-73.562 14.688,-67.687 79.438,-64.75 97.186,-155.999 17.687,-91.249 92.718,-85.374 92.718,-85.374 0,0 74.847,-5.875 92.535,85.374 17.625,91.249 82.252,88.311 96.94,155.999 z M 343.586,206.15 c 39.841,11.505 83.844,-19.951 98.349,-70.258 C 456.439,85.647 435.937,35.585 396.096,24.08 356.254,12.574 312.252,44.031 297.747,94.338 c -14.504,50.245 5.998,100.307 45.839,111.812 z m 165.117,-18.298 c -38.372,-15.668 -85.496,10.894 -105.264,59.363 -19.768,48.471 -4.712,100.43 33.66,116.035 38.372,15.606 85.496,-10.894 105.264,-59.364 19.768,-48.47 4.713,-100.367 -33.66,-116.034 z M 207.416,206.15 c 39.841,-11.506 60.343,-61.567 45.839,-111.812 -14.504,-50.245 -58.568,-81.702 -98.349,-70.196 -39.78,11.505 -60.343,61.566 -45.839,111.812 14.505,50.245 58.508,81.701 98.349,70.196 z m -93.453,157.1 c 38.373,-15.667 53.428,-67.626 33.66,-116.035 C 127.855,198.806 80.731,172.184 42.359,187.852 3.987,203.519 -11.068,255.478 8.7,303.886 c 19.767,48.47 66.891,75.031 105.263,59.364 z"
       id="path5"
       inkscape:connector-curvature="0"
       style="fill:none;fill-opacity:1;stroke:#000000;stroke-opacity:1;stroke-width:1.80348362;stroke-miterlimit:4;stroke-dasharray:none;stroke-linejoin:round;stroke-linecap:round" /></g><g
     id="g7"
     transform="translate(-16.345213,-7.3674174)" /><g
     id="g9"
     transform="translate(-16.345213,-7.3674174)" /><g
     id="g11"
     transform="translate(-16.345213,-7.3674174)" /><g
     id="g13"
     transform="translate(-16.345213,-7.3674174)" /><g
     id="g15"
     transform="translate(-16.345213,-7.3674174)" /><g
     id="g17"
     transform="translate(-16.345213,-7.3674174)" /><g
     id="g19"
     transform="translate(-16.345213,-7.3674174)" /><g
     id="g21"
     transform="translate(-16.345213,-7.3674174)" /><g
     id="g23"
     transform="translate(-16.345213,-7.3674174)" /><g
     id="g25"
     transform="translate(-16.345213,-7.3674174)" /><g
     id="g27"
     transform="translate(-16.345213,-7.3674174)" /><g
     id="g29"
     transform="translate(-16.345213,-7.3674174)" /><g
     id="g31"
     transform="translate(-16.345213,-7.3674174)" /><g
     id="g33"
     transform="translate(-16.345213,-7.3674174)" /><g
     id="g35"
     transform="translate(-16.345213,-7.3674174)" /></svg>