<?xml version="1.0" encoding="UTF-8" standalone="no"?>
<!-- Generator: Adobe Illustrator 18.0.0, SVG Export Plug-In . SVG Version: 6.00 Build 0)  -->

<svg
   xmlns:dc="http://purl.org/dc/elements/1.1/"
   xmlns:cc="http://creativecommons.org/ns#"
   xmlns:rdf="http://www.w3.org/1999/02/22-rdf-syntax-ns#"
   xmlns:svg="http://www.w3.org/2000/svg"
   xmlns="http://www.w3.org/2000/svg"
   xmlns:sodipodi="http://sodipodi.sourceforge.net/DTD/sodipodi-0.dtd"
   xmlns:inkscape="http://www.inkscape.org/namespaces/inkscape"
   version="1.1"
   id="Capa_1"
   x="0px"
   y="0px"
   viewBox="0 0 487.162 487.162"
   style="enable-background:new 0 0 487.162 487.162;"
   xml:space="preserve"
   inkscape:version="0.91 r13725"
   sodipodi:docname="vet.svg"><metadata
     id="metadata4472"><rdf:RDF><cc:Work
         rdf:about=""><dc:format>image/svg+xml</dc:format><dc:type
           rdf:resource="http://purl.org/dc/dcmitype/StillImage" /><dc:title></dc:title></cc:Work></rdf:RDF></metadata><defs
     id="defs4470" /><sodipodi:namedview
     pagecolor="#ffffff"
     bordercolor="#666666"
     borderopacity="1"
     objecttolerance="10"
     gridtolerance="10"
     guidetolerance="10"
     inkscape:pageopacity="0"
     inkscape:pageshadow="2"
     inkscape:window-width="1142"
     inkscape:window-height="767"
     id="namedview4468"
     showgrid="false"
     inkscape:zoom="0.48443845"
     inkscape:cx="243.58099"
     inkscape:cy="243.58099"
     inkscape:window-x="103"
     inkscape:window-y="47"
     inkscape:window-maximized="0"
     inkscape:current-layer="Capa_1" /><g
     id="g4426"
     style="stroke:#000000;stroke-opacity:1;fill:none;fill-opacity:1;stroke-width:2;stroke-miterlimit:4;stroke-dasharray:none"><path
       d="M470.912,288.228h-41.538c8.474-6.453,13.957-16.641,13.957-28.09l-0.002-5.656c2.642-5.93,4.127-12.581,4.127-19.605   c0-5.221-0.851-10.087-2.435-14.502c12.596-17.817,4.44-32.495,4.078-33.124c-0.677-1.177-1.874-1.96-3.224-2.106   c-18.01-1.972-26.381,8.04-28.565,11.229c-3.518-0.818-7.265-1.254-11.209-1.254c-3.526,0-6.893,0.356-10.08,1.021   c-2.442-3.242-11.318-12.931-29.048-10.995c-1.349,0.146-2.547,0.93-3.224,2.106c-0.347,0.603-7.848,14.082,2.571,30.868h-14.631   c-15.253,0-28.645,10.026-33.707,23.655L297.908,264.3c-1.562,1.753-1.407,4.439,0.345,6.001c0.81,0.722,1.82,1.077,2.826,1.077   c1.17,0,2.335-0.48,3.174-1.422l11.577-12.989v3.172c0,11.449,5.483,21.637,13.957,28.09H224.656v-71.852l40.981,40.777   c4.656,4.656,10.772,6.984,16.888,6.984s12.232-2.328,16.888-6.984c9.311-9.312,9.311-24.463,0-33.775l-81.202-81.201   c-5.176-6.271-13.005-10.273-21.752-10.273h-23.672c-2.171,0-3.994,1.637-4.226,3.796c-0.452,4.205-7.706,17.061-14.189,27.371   c-6.482-10.309-13.736-23.163-14.188-27.371c-0.232-2.159-2.054-3.796-4.226-3.796h-23.672c-8.221,0-15.629,3.538-20.788,9.169   c-0.031,0.029-0.068,0.05-0.098,0.08L8.328,224.228c-9.311,9.312-9.311,24.464,0,33.776c4.656,4.655,10.771,6.983,16.888,6.983   c6.116,0,12.231-2.328,16.888-6.983l41.988-41.988v72.213H16.25c-8.96,0-16.25,7.29-16.25,16.25V469.79   c0,8.96,7.29,16.25,16.25,16.25h454.662c8.96,0,16.25-7.29,16.25-16.25V304.478C487.162,295.518,479.873,288.228,470.912,288.228z    M442.531,193.417c1.047,3.142,2.256,9.857-2.063,18.143c-3.663-5.229-8.641-9.401-14.635-12.235   C428.233,196.84,433.398,193.082,442.531,193.417z M438.956,234.878c0,20.126-14.691,36.5-32.75,36.5s-32.75-16.374-32.75-36.5   c0-21.593,16.397-31.258,32.646-31.258C422.455,203.62,438.956,213.285,438.956,234.878z M370.321,193.417   c8.722-0.304,14.075,3.067,16.84,5.585c-6.125,2.769-11.22,6.928-14.98,12.177C368.099,203.075,369.289,196.517,370.321,193.417z    M324.331,260.139v-6.468c0-14.663,12.529-27.051,27.36-27.051h14.011c-0.489,2.636-0.746,5.394-0.746,8.258   c0,24.813,18.505,45,41.25,45c10.432,0,19.966-4.255,27.238-11.247c-3.56,10.623-13.6,18.302-25.406,18.302h-56.914   C336.35,286.933,324.331,274.913,324.331,260.139z M84.092,201.439l-20.477-20.478l20.477-20.477V201.439z M224.656,160.644   l19.567,19.566l-19.567,19.568V160.644z M293.403,251.144c-5.999,5.998-15.758,5.998-21.763-0.008l-43.268-43.053l21.862-21.862   l43.169,43.168C299.401,235.388,299.401,245.146,293.403,251.144z M188.272,206.073c3.721,0,6.748,3.027,6.748,6.748   s-3.027,6.748-6.748,6.748s-6.748-3.027-6.748-6.748S184.552,206.073,188.272,206.073z M118.168,140.405l-2.396,51.02   c-10.716,1.929-18.876,11.315-18.876,22.578v25.235c0,2.348,1.903,4.25,4.25,4.25h8.799c2.347,0,4.25-1.902,4.25-4.25   c0-2.348-1.903-4.25-4.25-4.25h-4.549v-20.985c0-7.966,6.481-14.447,14.448-14.447s14.448,6.482,14.448,14.447v20.985h-4.549   c-2.347,0-4.25,1.902-4.25,4.25c0,2.348,1.903,4.25,4.25,4.25h8.799c2.347,0,4.25-1.902,4.25-4.25v-25.235   c0-11.137-7.976-20.441-18.514-22.514l2.399-51.084h5.981c3.516,10.422,15.517,28.847,18.172,32.859   c0.787,1.189,2.118,1.904,3.544,1.904c1.426,0,2.757-0.715,3.544-1.904c2.655-4.013,14.656-22.438,18.171-32.859h7.933v57.782   c-6.344,1.846-10.998,7.701-10.998,14.634c0,8.408,6.84,15.248,15.248,15.248s15.248-6.84,15.248-15.248   c0-6.933-4.654-12.788-10.998-14.634v-57.782h3.938c10.86,0,19.696,8.836,19.696,19.696v125.685H92.592v-21.191h52.587   c2.347,0,4.25-1.902,4.25-4.25c0-2.348-1.903-4.25-4.25-4.25H92.592v-95.993c0-10.86,8.836-19.696,19.696-19.696H118.168z    M36.093,251.993c-5.999,5.997-15.757,5.998-21.755,0.001c-5.997-5.998-5.997-15.758,0-21.756l43.266-43.266l21.755,21.754   L36.093,251.993z M470.912,477.54H16.25c-4.273,0-7.75-3.477-7.75-7.75V359.378h32.019v76.987c0,2.348,1.903,4.25,4.25,4.25   c2.347,0,4.25-1.902,4.25-4.25v-76.987h113.563c2.347,0,4.25-1.902,4.25-4.25c0-2.348-1.903-4.25-4.25-4.25H8.5v-20.5h436.081   c2.347,0,4.25-1.902,4.25-4.25c0-2.348-1.903-4.25-4.25-4.25H8.5v-17.399c0-4.273,3.477-7.75,7.75-7.75h454.662   c4.273,0,7.75,3.477,7.75,7.75V417.54h-53.75c-2.347,0-4.25,1.902-4.25,4.25c0,2.348,1.903,4.25,4.25,4.25h53.75v17.5H347.581   c-2.347,0-4.25,1.902-4.25,4.25c0,2.348,1.903,4.25,4.25,4.25h131.081v17.75C478.662,474.063,475.186,477.54,470.912,477.54z"
       id="path4428"
       style="stroke:#000000;stroke-opacity:1;fill:none;fill-opacity:1;stroke-width:2;stroke-miterlimit:4;stroke-dasharray:none" /><path
       d="M110.103,107.101c9.661,14.115,25.888,23.399,44.246,23.399c18.381,0,34.626-9.306,44.282-23.451   c22.141-11.938,21.88-32.248,21.761-40.982c-0.492-36.033-27.425-63.325-64.04-64.895c-19.33-0.82-30.502,8.581-33.922,12.025   c-2.991,0.678-9.642,2.705-16.295,8.247c-7.913,6.591-17.452,19.646-17.959,44.408C87.997,74.623,87.594,95.031,110.103,107.101z    M154.349,122.001c-24.86,0-45.085-20.225-45.085-45.085V64.359c11.656-4.42,18.84-16.709,22.37-24.551   c9.608,10.113,33.23,30.552,67.799,31.611v5.496C199.433,101.776,179.208,122.001,154.349,122.001z M96.674,66.027   c0.827-40.373,27.356-44.55,28.461-44.704c1.059-0.136,2.045-0.686,2.732-1.502c0.376-0.448,9.425-10.967,28.121-10.156   c31.964,1.37,55.476,25.14,55.904,56.518c0.078,5.745,0.194,14.838-5.404,23.05c0.935-3.958,1.445-8.078,1.445-12.316v-5.832   c1.664-0.64,2.817-2.273,2.728-4.151c-0.112-2.344-2.104-4.152-4.447-4.043c-44.76,2.123-72.33-33.373-72.6-33.728l-0.009,0.007   c-0.521-0.69-1.248-1.233-2.138-1.506c-2.244-0.685-4.62,0.577-5.307,2.822c-0.078,0.254-8.191,25.384-24.217,26.955   c-2.336,0.229-4.044,2.309-3.815,4.644c0.159,1.627,1.219,2.945,2.636,3.521v11.311c0,4.362,0.537,8.6,1.524,12.662   C97.295,82.476,96.507,74.207,96.674,66.027z"
       id="path4430"
       style="stroke:#000000;stroke-opacity:1;fill:none;fill-opacity:1;stroke-width:2;stroke-miterlimit:4;stroke-dasharray:none" /><path
       d="M155.83,88.229h-5.393c-10.273,0-18.631,8.357-18.631,18.631v5.572c0,2.348,1.903,4.25,4.25,4.25s4.25-1.902,4.25-4.25   v-5.572c0-5.586,4.545-10.131,10.131-10.131h5.393c5.586,0,10.131,4.545,10.131,10.131v5.572c0,2.348,1.903,4.25,4.25,4.25   s4.25-1.902,4.25-4.25v-5.572C174.461,96.587,166.103,88.229,155.83,88.229z"
       id="path4432"
       style="stroke:#000000;stroke-opacity:1;fill:none;fill-opacity:1;stroke-width:2;stroke-miterlimit:4;stroke-dasharray:none" /><path
       d="M158.144,104.696h-10.019c-2.347,0-4.25,1.902-4.25,4.25c0,2.348,1.903,4.25,4.25,4.25h10.019   c2.347,0,4.25-1.902,4.25-4.25C162.394,106.599,160.491,104.696,158.144,104.696z"
       id="path4434"
       style="stroke:#000000;stroke-opacity:1;fill:none;fill-opacity:1;stroke-width:2;stroke-miterlimit:4;stroke-dasharray:none" /><path
       d="M400.873,252.62h1.083v6.417c0,2.348,1.903,4.25,4.25,4.25s4.25-1.902,4.25-4.25v-6.417h1.083   c2.347,0,4.25-1.902,4.25-4.25c0-2.348-1.903-4.25-4.25-4.25h-10.666c-2.347,0-4.25,1.902-4.25,4.25   C396.623,250.718,398.526,252.62,400.873,252.62z"
       id="path4436"
       style="stroke:#000000;stroke-opacity:1;fill:none;fill-opacity:1;stroke-width:2;stroke-miterlimit:4;stroke-dasharray:none" /></g><g
     id="g4438" /><g
     id="g4440" /><g
     id="g4442" /><g
     id="g4444" /><g
     id="g4446" /><g
     id="g4448" /><g
     id="g4450" /><g
     id="g4452" /><g
     id="g4454" /><g
     id="g4456" /><g
     id="g4458" /><g
     id="g4460" /><g
     id="g4462" /><g
     id="g4464" /><g
     id="g4466" /></svg>