<?xml version="1.0" encoding="UTF-8" standalone="no"?>
<!-- Created with Inkscape (http://www.inkscape.org/) -->

<svg
   xmlns:dc="http://purl.org/dc/elements/1.1/"
   xmlns:cc="http://creativecommons.org/ns#"
   xmlns:rdf="http://www.w3.org/1999/02/22-rdf-syntax-ns#"
   xmlns:svg="http://www.w3.org/2000/svg"
   xmlns="http://www.w3.org/2000/svg"
   xmlns:sodipodi="http://sodipodi.sourceforge.net/DTD/sodipodi-0.dtd"
   xmlns:inkscape="http://www.inkscape.org/namespaces/inkscape"
   width="5.2355185in"
   height="1.8208892in"
   viewBox="0 0 471.19666 163.88003"
   id="svg2"
   version="1.1"
   inkscape:version="0.91 r13725"
   sodipodi:docname="vpm.svg">
  <defs
     id="defs4" />
  <sodipodi:namedview
     id="base"
     pagecolor="#ffffff"
     bordercolor="#666666"
     borderopacity="1.0"
     inkscape:pageopacity="0.0"
     inkscape:pageshadow="2"
     inkscape:zoom="1.0686312"
     inkscape:cx="104.7062"
     inkscape:cy="0.53248928"
     inkscape:document-units="px"
     inkscape:current-layer="layer1"
     showgrid="false"
     inkscape:window-width="1676"
     inkscape:window-height="1005"
     inkscape:window-x="0"
     inkscape:window-y="1"
     inkscape:window-maximized="1"
     fit-margin-top="0"
     fit-margin-left="0"
     fit-margin-right="0"
     fit-margin-bottom="0"
     units="in" />
  <metadata
     id="metadata7">
    <rdf:RDF>
      <cc:Work
         rdf:about="">
        <dc:format>image/svg+xml</dc:format>
        <dc:type
           rdf:resource="http://purl.org/dc/dcmitype/StillImage" />
        <dc:title></dc:title>
      </cc:Work>
    </rdf:RDF>
  </metadata>
  <g
     inkscape:label="Layer 1"
     inkscape:groupmode="layer"
     id="layer1"
     transform="translate(-39.298492,-149.00506)">
    <flowRoot
       xml:space="preserve"
       id="flowRoot4136"
       style="font-style:normal;font-weight:normal;font-size:40px;line-height:125%;font-family:sans-serif;letter-spacing:0px;word-spacing:0px;fill:#000000;fill-opacity:1;stroke:none;stroke-width:1px;stroke-linecap:butt;stroke-linejoin:miter;stroke-opacity:1"><flowRegion
         id="flowRegion4138"><rect
           id="rect4140"
           width="21.428572"
           height="365.71429"
           x="48.57143"
           y="86.647919" /></flowRegion><flowPara
         id="flowPara4142">VV</flowPara></flowRoot>    <text
       xml:space="preserve"
       style="font-style:normal;font-weight:normal;font-size:40px;line-height:125%;font-family:sans-serif;letter-spacing:0px;word-spacing:0px;fill:#000000;fill-opacity:1;stroke:none;stroke-width:1px;stroke-linecap:butt;stroke-linejoin:miter;stroke-opacity:1"
       x="257.14285"
       y="262.36221"
       id="text4144"
       sodipodi:linespacing="125%"><tspan
         sodipodi:role="line"
         id="tspan4146"
         x="257.14285"
         y="262.36221" /></text>
    <path
       style="fill:#3a40c6;fill-opacity:1;fill-rule:evenodd;stroke:#000000;stroke-width:1px;stroke-linecap:butt;stroke-linejoin:miter;stroke-opacity:1"
       d="m 40,149.50506 34.285714,0 32.857146,124.28572 35.71428,-121.42858 30,0 -54.28571,160 -22.857144,-1.42857 z"
       id="path4151"
       inkscape:connector-curvature="0" />
    <path
       style="fill:#3a40c6;fill-opacity:1;fill-rule:evenodd;stroke:#000000;stroke-width:1px;stroke-linecap:butt;stroke-linejoin:miter;stroke-opacity:1"
       d="m 207.78889,156.34441 0,123.23861 26.73841,-0.17857"
       id="path4162"
       inkscape:connector-curvature="0"
       sodipodi:nodetypes="ccc" />
    <path
       style="fill:#3a40c6;fill-opacity:1;fill-rule:evenodd;stroke:#000000;stroke-width:1px;stroke-linecap:butt;stroke-linejoin:miter;stroke-opacity:1"
       d="m 233.75464,280.34401 0,-55.58229 59.22161,0 -0.33085,-67.82363 -85.02767,0.6617"
       id="path4203"
       inkscape:connector-curvature="0" />
    <g
       id="g4437"
       transform="matrix(0.0903676,0,0,0.09541873,228.20726,169.08594)"
       style="fill:none;stroke:#000000;stroke-width:7.53832483;stroke-miterlimit:4;stroke-dasharray:none;stroke-opacity:1">
      <g
         style="fill:none;fill-opacity:1;stroke:#000000;stroke-width:8.64837456;stroke-linecap:round;stroke-linejoin:round;stroke-miterlimit:4;stroke-dasharray:none;stroke-opacity:1"
         transform="matrix(0.89406792,0,0,0.84978716,3.5023758,-16.581882)"
         id="g3">
        <path
           style="fill:#ffffff;fill-opacity:1;stroke:#000000;stroke-width:8.64837456;stroke-linecap:round;stroke-linejoin:round;stroke-miterlimit:4;stroke-dasharray:none;stroke-opacity:1"
           inkscape:connector-curvature="0"
           id="path5"
           d="m 465.19,453.459 c 14.749,67.688 -58.752,82.375 -91.127,73.562 -32.375,-8.813 -98.41,-10.281 -98.41,-10.281 0,0 -66.218,1.469 -98.593,10.281 -32.375,8.874 -105.937,-5.875 -91.249,-73.562 14.688,-67.687 79.438,-64.75 97.186,-155.999 17.687,-91.249 92.718,-85.374 92.718,-85.374 0,0 74.847,-5.875 92.535,85.374 17.625,91.249 82.252,88.311 96.94,155.999 z M 343.586,206.15 c 39.841,11.505 83.844,-19.951 98.349,-70.258 C 456.439,85.647 435.937,35.585 396.096,24.08 356.254,12.574 312.252,44.031 297.747,94.338 c -14.504,50.245 5.998,100.307 45.839,111.812 z m 165.117,-18.298 c -38.372,-15.668 -85.496,10.894 -105.264,59.363 -19.768,48.471 -4.712,100.43 33.66,116.035 38.372,15.606 85.496,-10.894 105.264,-59.364 19.768,-48.47 4.713,-100.367 -33.66,-116.034 z M 207.416,206.15 c 39.841,-11.506 60.343,-61.567 45.839,-111.812 -14.504,-50.245 -58.568,-81.702 -98.349,-70.196 -39.78,11.505 -60.343,61.566 -45.839,111.812 14.505,50.245 58.508,81.701 98.349,70.196 z m -93.453,157.1 c 38.373,-15.667 53.428,-67.626 33.66,-116.035 C 127.855,198.806 80.731,172.184 42.359,187.852 3.987,203.519 -11.068,255.478 8.7,303.886 c 19.767,48.47 66.891,75.031 105.263,59.364 z" />
      </g>
      <g
         transform="translate(-16.345213,-7.3674174)"
         id="g7"
         style="fill:none;stroke:#000000;stroke-width:7.53832483;stroke-miterlimit:4;stroke-dasharray:none;stroke-opacity:1" />
      <g
         transform="translate(-16.345213,-7.3674174)"
         id="g9"
         style="fill:none;stroke:#000000;stroke-width:7.53832483;stroke-miterlimit:4;stroke-dasharray:none;stroke-opacity:1" />
      <g
         transform="translate(-16.345213,-7.3674174)"
         id="g11"
         style="fill:none;stroke:#000000;stroke-width:7.53832483;stroke-miterlimit:4;stroke-dasharray:none;stroke-opacity:1" />
      <g
         transform="translate(-16.345213,-7.3674174)"
         id="g13"
         style="fill:none;stroke:#000000;stroke-width:7.53832483;stroke-miterlimit:4;stroke-dasharray:none;stroke-opacity:1" />
      <g
         transform="translate(-16.345213,-7.3674174)"
         id="g15"
         style="fill:none;stroke:#000000;stroke-width:7.53832483;stroke-miterlimit:4;stroke-dasharray:none;stroke-opacity:1" />
      <g
         transform="translate(-16.345213,-7.3674174)"
         id="g17"
         style="fill:none;stroke:#000000;stroke-width:7.53832483;stroke-miterlimit:4;stroke-dasharray:none;stroke-opacity:1" />
      <g
         transform="translate(-16.345213,-7.3674174)"
         id="g19"
         style="fill:none;stroke:#000000;stroke-width:7.53832483;stroke-miterlimit:4;stroke-dasharray:none;stroke-opacity:1" />
      <g
         transform="translate(-16.345213,-7.3674174)"
         id="g21"
         style="fill:none;stroke:#000000;stroke-width:7.53832483;stroke-miterlimit:4;stroke-dasharray:none;stroke-opacity:1" />
      <g
         transform="translate(-16.345213,-7.3674174)"
         id="g23"
         style="fill:none;stroke:#000000;stroke-width:7.53832483;stroke-miterlimit:4;stroke-dasharray:none;stroke-opacity:1" />
      <g
         transform="translate(-16.345213,-7.3674174)"
         id="g25"
         style="fill:none;stroke:#000000;stroke-width:7.53832483;stroke-miterlimit:4;stroke-dasharray:none;stroke-opacity:1" />
      <g
         transform="translate(-16.345213,-7.3674174)"
         id="g27"
         style="fill:none;stroke:#000000;stroke-width:7.53832483;stroke-miterlimit:4;stroke-dasharray:none;stroke-opacity:1" />
      <g
         transform="translate(-16.345213,-7.3674174)"
         id="g29"
         style="fill:none;stroke:#000000;stroke-width:7.53832483;stroke-miterlimit:4;stroke-dasharray:none;stroke-opacity:1" />
      <g
         transform="translate(-16.345213,-7.3674174)"
         id="g31"
         style="fill:none;stroke:#000000;stroke-width:7.53832483;stroke-miterlimit:4;stroke-dasharray:none;stroke-opacity:1" />
      <g
         transform="translate(-16.345213,-7.3674174)"
         id="g33"
         style="fill:none;stroke:#000000;stroke-width:7.53832483;stroke-miterlimit:4;stroke-dasharray:none;stroke-opacity:1" />
      <g
         transform="translate(-16.345213,-7.3674174)"
         id="g35"
         style="fill:none;stroke:#000000;stroke-width:7.53832483;stroke-miterlimit:4;stroke-dasharray:none;stroke-opacity:1" />
    </g>
    <path
       style="fill:#3a40c6;fill-opacity:1;fill-rule:evenodd;stroke:#000000;stroke-width:1px;stroke-linecap:butt;stroke-linejoin:miter;stroke-opacity:1"
       d="m 338.75111,296.25474 c 10.29354,-105.74275 9.35776,-105.74275 9.35776,-105.74275 l 38.36684,53.33926 31.81641,-53.33926 29.94485,111.35741 -19.65131,0 -15.9082,-53.33926 -15.9082,18.71553 -18.71554,-0.93578 -18.71553,-25.26597 -4.67888,58.01815 z"
       id="path4456"
       inkscape:connector-curvature="0" />
    <text
       xml:space="preserve"
       style="font-style:normal;font-weight:normal;font-size:40px;line-height:125%;font-family:sans-serif;letter-spacing:0px;word-spacing:0px;fill:#000000;fill-opacity:1;stroke:none;stroke-width:1px;stroke-linecap:butt;stroke-linejoin:miter;stroke-opacity:1"
       x="145.98114"
       y="256.01636"
       id="text4458"
       sodipodi:linespacing="125%"><tspan
         sodipodi:role="line"
         id="tspan4460"
         x="145.98114"
         y="256.01636">et</tspan></text>
    <text
       xml:space="preserve"
       style="font-style:normal;font-weight:normal;font-size:40px;line-height:125%;font-family:sans-serif;letter-spacing:0px;word-spacing:0px;fill:#000000;fill-opacity:1;stroke:none;stroke-width:1px;stroke-linecap:butt;stroke-linejoin:miter;stroke-opacity:1"
       x="295.70541"
       y="225.13574"
       id="text4462"
       sodipodi:linespacing="125%"><tspan
         sodipodi:role="line"
         id="tspan4464"
         x="295.70541"
         y="225.13574">et</tspan></text>
    <text
       xml:space="preserve"
       style="font-style:normal;font-weight:normal;font-size:40px;line-height:125%;font-family:sans-serif;letter-spacing:0px;word-spacing:0px;fill:#000000;fill-opacity:1;stroke:none;stroke-width:1px;stroke-linecap:butt;stroke-linejoin:miter;stroke-opacity:1"
       x="441.68655"
       y="284.08966"
       id="text4466"
       sodipodi:linespacing="125%"><tspan
         sodipodi:role="line"
         id="tspan4468"
         x="441.68655"
         y="284.08966">eds</tspan></text>
  </g>
</svg>
